HIERARCHY
ROOT Hips
{
	OFFSET 0.00000 0.00000 0.00000
	CHANNELS 6 Xposition Yposition Zposition Zrotation Yrotation Xrotation 
	JOINT LHipJoint
	{
		OFFSET 0 0 0
		CHANNELS 3 Zrotation Yrotation Xrotation
		JOINT LeftHip
		{
			OFFSET 1.75344 -1.53157 0.77399
			CHANNELS 3 Zrotation Yrotation Xrotation
			JOINT LeftKnee
			{
				OFFSET 2.25415 -6.19323 0.00000
				CHANNELS 3 Zrotation Yrotation Xrotation
				JOINT LeftAnkle
				{
					OFFSET 2.30342 -6.32861 0.00000
					CHANNELS 3 Zrotation Yrotation Xrotation
					JOINT LeftToe
					{
						OFFSET 0.10958 -0.30108 1.49206
						CHANNELS 3 Zrotation Yrotation Xrotation
						End Site
						{
							OFFSET 0.00000 -0.00000 0.77783
						}
					}
				}
			}
		}
	}
	JOINT RHipJoint
	{
		OFFSET 0 0 0
		CHANNELS 3 Zrotation Yrotation Xrotation
		JOINT RightHip
		{
			OFFSET -1.81912 -1.53156 0.77399
			CHANNELS 3 Zrotation Yrotation Xrotation
			JOINT RightKnee
			{
				OFFSET -2.22882 -6.12365 0.00000
				CHANNELS 3 Zrotation Yrotation Xrotation
				JOINT RightAnkle
				{
					OFFSET -2.21943 -6.09785 0.00000
					CHANNELS 3 Zrotation Yrotation Xrotation
					JOINT RightToe
					{
						OFFSET -0.18931 -0.52012 1.59379
						CHANNELS 3 Zrotation Yrotation Xrotation
						End Site
						{
							OFFSET -0.00000 -0.00000 0.84686
						}
					}
				}
			}
		}
	}
	JOINT lowerback
	{
		OFFSET 0 0 0
		CHANNELS 3 Zrotation Yrotation Xrotation
		JOINT Chest
		{
			OFFSET -0.00200 1.66634 -0.14248
			CHANNELS 3 Zrotation Yrotation Xrotation
			JOINT Chest2
			{
				OFFSET -0.00875 1.64542 0.09514
				CHANNELS 3 Zrotation Yrotation Xrotation
				JOINT lowerneck
				{
					OFFSET 0 0 0
					CHANNELS 3 Zrotation Yrotation Xrotation
					JOINT Neck
					{
						OFFSET 0.02257 1.59605 0.00839
						CHANNELS 3 Zrotation Yrotation Xrotation
						JOINT Head
						{
							OFFSET -0.10214 1.57530 -0.23335
							CHANNELS 3 Zrotation Yrotation Xrotation
							End Site
							{
								OFFSET -0.03588 1.60717 -0.08062
							}
						}
					}
				}
				JOINT LeftCollar
				{
					OFFSET 0 0 0
					CHANNELS 3 Zrotation Yrotation Xrotation
					JOINT LeftShoulder
					{
						OFFSET 2.54983 1.10186 0.40078
CHANNELS 3 Zrotation Xrotation Yrotation
						JOINT LeftElbow
						{
OFFSET 0 -4.288400 0.000000
CHANNELS 3 Zrotation Xrotation Yrotation
							JOINT LeftWrist
							{
OFFSET 0 -3.065520 -0.000000
CHANNELS 3 Zrotation Xrotation Yrotation
								JOINT lhand
								{
									OFFSET 0 0 0
CHANNELS 3 Zrotation Xrotation Yrotation
									JOINT LFingers
									{
OFFSET 0 -0.753040 0.000000
CHANNELS 3 Zrotation Xrotation Yrotation
										End Site
										{
OFFSET 0 -0.607120 0.000000
										}
									}
								}
								JOINT LThumb
								{
OFFSET 0 0.000000 0.000000
CHANNELS 3 Zrotation Xrotation Yrotation
									End Site
									{
OFFSET 0 -0.616390 0.616390
									}
								}
							}
						}
					}
				}
				JOINT RightCollar
				{
					OFFSET 0 0 0
					CHANNELS 3 Zrotation Yrotation Xrotation
					JOINT RightShoulder
					{
						OFFSET -2.60909 1.35448 0.21802
CHANNELS 3 Zrotation Xrotation Yrotation
						JOINT RightElbow
						{
OFFSET 0 -4.521720 -0.000000
CHANNELS 3 Zrotation Xrotation Yrotation
							JOINT RightWrist
							{
OFFSET 0 -2.891400 0.000000
CHANNELS 3 Zrotation Xrotation Yrotation
								JOINT rhand
								{
									OFFSET 0 0 0
CHANNELS 3 Zrotation Xrotation Yrotation
									JOINT RFingers
									{
OFFSET 0 -0.680540 0.000000
CHANNELS 3 Zrotation Xrotation Yrotation
										End Site
										{
OFFSET 0 -0.548670 0.000000
										}
									}
								}
								JOINT RThumb
								{
OFFSET 0 0.000000 0.000000
CHANNELS 3 Zrotation Xrotation Yrotation
									End Site
									{
OFFSET 0 -0.557050 0.557050
									}
								}
							}
						}
					}
				}
			}
		}
	}
}
MOTION
Frames: 11
Frame Time: 0.008333333333333333
8.149800 15.132100 42.239400 -179.074000 2.736500 -179.398000 0.000000 0.000000 0.000000 -27.991900 -22.355400 -0.957400 2.423500 9.697500 28.002700 1.763500 14.409100 -33.777500 0.000200 -0.088400 -0.242900 0.000000 0.000000 0.000000 26.466200 18.368100 -1.054000 -2.229500 -9.328600 26.828900 -1.475600 -16.841800 -34.264200 -0.947200 -6.198100 17.360400 0.410000 1.518000 6.403500 -0.092300 2.116200 -3.596800 -0.597100 1.036100 -7.344900 -5.019900 -2.096900 -3.417600 5.273600 -3.085700 7.880600 2.514900 -1.562300 3.358000 0.000000 0.000000 0.000000 3.840900 12.965300 -27.388400 19.330100 -29.826800 5.194000 6.582400 11.273800 34.284400 0.000000 0.000000 0.000000 -7.125000 0.000000 0.000000 -14.280400 -3.547400 -15.617400 0.000000 0.000000 0.000000 -4.111900 11.888600 44.990900 -18.672400 -29.009600 -4.870900 -0.469100 15.873600 55.647500 0.000000 0.000000 0.000000 7.125000 0.000000 -0.000000 80.265300 72.120300 -61.270700
8.115243 15.131913 42.206733 -178.738893 2.470166 -179.087663 0.000000 0.000000 0.000000 -27.766621 -22.759310 -1.163235 2.473598 9.789770 28.298598 1.801238 14.345289 -33.941013 1.100705 -6.666365 -18.730601 0.000000 0.000000 0.000000 26.680913 18.501555 -0.982061 -2.161691 -9.195051 26.407381 -1.328517 -17.634638 -34.176393 -0.820402 -5.778218 16.142620 0.915947 1.461667 6.065630 -0.050479 2.096167 -3.675216 -0.825281 1.006792 -7.217211 -5.295223 -2.029756 -3.165203 5.660442 -2.993851 7.434416 2.700299 -1.511287 3.168824 0.000000 0.000000 0.000000 3.993995 13.924693 -27.775744 19.376860 -29.884275 5.217279 8.036167 11.163990 34.408462 0.000000 0.000000 0.000000 -7.125000 0.000000 0.000000 -13.500884 -3.850056 -14.781900 0.000000 0.000000 0.000000 -3.511634 11.991828 43.558167 -18.882902 -29.272718 -4.973503 -1.719948 17.538974 53.776862 0.000000 0.000000 0.000000 7.125000 0.000000 0.000000 74.063220 72.162301 -55.351786
8.072984 15.123844 42.168585 -178.772232 2.056587 -179.192174 0.000000 0.000000 0.000000 -28.032899 -22.589664 -0.937914 2.460150 9.765053 28.219194 1.824204 13.972347 -33.769417 1.103988 -6.675807 -18.758449 0.000000 0.000000 0.000000 26.559829 18.168989 -0.906980 -2.204058 -9.278793 26.671452 -1.310247 -17.924102 -34.354357 -0.760037 -5.566189 15.531072 0.739276 1.445593 6.352896 0.067179 2.071694 -3.760346 -0.610850 1.004918 -7.485411 -5.106964 -2.107102 -3.176873 5.214564 -3.062817 7.395432 2.508700 -1.550436 3.144353 0.000000 0.000000 0.000000 3.755207 14.770791 -28.180087 19.360072 -29.863601 5.208906 8.263862 11.222997 33.821548 0.000000 0.000000 0.000000 -7.125000 0.000000 0.000000 -13.337869 -3.311107 -14.473854 0.000000 0.000000 0.000000 -3.522749 12.536512 42.551039 -19.333654 -29.831113 -5.195797 -0.292671 16.790344 54.165873 0.000000 0.000000 0.000000 7.125000 0.000000 0.000000 75.884100 71.756881 -56.588991
8.026797 15.118162 42.143056 -178.892681 2.213023 -179.104576 0.000000 0.000000 0.000000 -28.409205 -22.614019 -0.881182 2.459935 9.764696 28.218221 1.894547 13.956240 -34.156027 1.068321 -6.570863 -18.450184 0.000000 0.000000 0.000000 25.928708 17.326747 -1.614307 -2.277690 -9.422026 27.124449 -1.424874 -16.940261 -34.066246 -0.680963 -5.276023 14.697543 0.771459 1.455827 6.284062 0.022617 2.075996 -3.597590 -0.670476 1.003348 -7.268747 -5.299430 -2.026079 -3.524089 5.483485 -2.908102 6.985196 2.639365 -1.455604 3.073263 0.000000 0.000000 0.000000 3.362323 15.266385 -27.977705 19.604222 -30.162520 5.331058 5.683486 12.106624 33.179910 0.000000 0.000000 0.000000 -7.125000 0.000000 0.000000 -14.711873 -2.376275 -15.831916 0.000000 0.000000 0.000000 -3.372383 12.015102 41.627510 -19.305832 -29.796925 -5.182012 -1.118256 17.612523 53.066321 0.000000 0.000000 0.000000 7.125000 0.000000 0.000000 72.263903 71.752471 -53.180574
7.975449 15.105879 42.115227 -178.818935 2.166011 -178.764609 0.000000 0.000000 0.000000 -28.354948 -22.584216 -1.348333 2.480525 9.802397 28.339238 2.049022 12.999797 -34.285062 0.971869 -6.274099 -17.582407 0.000000 0.000000 0.000000 25.392053 16.316401 -2.888083 -2.395511 -9.645270 27.835682 -1.590971 -15.805363 -33.983853 -0.691654 -5.316006 14.812236 0.765967 1.506550 6.272243 0.130857 2.156951 -3.693347 -0.565881 1.047569 -7.367609 -5.322694 -2.091235 -3.890834 5.372854 -2.963535 7.062479 2.603587 -1.478964 3.170801 0.000000 0.000000 0.000000 3.022296 16.155721 -29.547347 19.675314 -30.248986 5.366982 7.992406 9.927030 33.867213 0.000000 0.000000 0.000000 -7.125000 0.000000 0.000000 -13.488577 -3.320187 -14.649345 0.000000 0.000000 0.000000 -3.724340 12.147982 41.054470 -19.598543 -30.155571 -5.328201 -1.077852 16.576765 53.699235 0.000000 0.000000 0.000000 7.125000 0.000000 0.000000 74.139598 71.915283 -55.127275
7.918084 15.087461 42.079221 -179.207983 1.915129 -178.729457 0.000000 0.000000 0.000000 -29.036471 -22.599126 -1.083600 2.425639 9.701356 28.014987 2.170253 11.965933 -34.208818 0.674257 -5.241283 -14.600294 0.000000 0.000000 0.000000 24.259439 14.585173 -4.615914 -2.689128 -10.173204 29.540063 -1.863292 -14.233188 -34.201818 -0.613363 -5.008502 13.933706 0.581433 1.382093 6.126038 0.031730 1.958812 -3.568273 -0.534870 0.956505 -7.154148 -5.325012 -2.040519 -3.986928 5.060201 -2.854248 7.012002 2.500912 -1.429579 3.156610 0.000000 0.000000 0.000000 2.934192 17.689442 -32.118244 20.545376 -31.293635 5.812080 9.706271 7.145042 33.261654 0.000000 0.000000 0.000000 -7.125000 0.000000 0.000000 -12.505693 -2.961254 -13.453830 0.000000 0.000000 0.000000 -3.938271 12.103800 40.384458 -19.832996 -30.440612 -5.446460 -0.881072 15.752907 54.969744 0.000000 0.000000 0.000000 7.125000 0.000000 0.000000 78.042116 72.140805 -59.124451
7.857972 15.075708 42.059750 -179.693189 2.141443 -178.565806 0.000000 0.000000 0.000000 -29.564547 -21.778562 -1.256763 2.314660 9.492811 27.349442 2.148506 11.300483 -33.618012 0.505580 -4.556131 -12.647065 0.000000 0.000000 0.000000 22.902571 13.184514 -7.088529 -3.171381 -10.967302 32.169888 -2.032393 -12.574415 -33.873499 -0.324732 -3.660420 10.123374 0.223548 1.403440 6.544483 -0.037402 1.949686 -3.626184 -0.418939 0.964647 -7.468018 -5.597817 -1.975032 -4.066550 5.223883 -2.713633 6.419748 2.609040 -1.349806 2.972220 0.000000 0.000000 0.000000 2.318589 18.668262 -33.248330 21.225123 -32.090130 6.169147 7.667719 4.980556 33.935733 0.000000 0.000000 0.000000 -7.125000 0.000000 0.000000 -13.669625 -3.345061 -14.863846 0.000000 0.000000 0.000000 -4.150843 11.924026 39.202654 -19.732259 -30.318501 -5.395604 -0.305817 15.236437 55.030336 0.000000 0.000000 0.000000 7.125000 0.000000 0.000000 78.452953 71.951382 -59.295447
7.800879 15.062826 42.037596 -180.377264 2.002236 -178.639272 0.000000 0.000000 0.000000 -30.595246 -21.405797 -0.581374 2.128761 9.129028 26.199943 2.067871 10.955218 -32.912602 0.374484 -3.914157 -10.837333 0.000000 0.000000 0.000000 21.451893 11.866292 -9.509483 -3.853782 -11.961854 35.599068 -1.915589 -11.411864 -32.327626 -0.230905 -2.853481 7.885085 -0.272008 1.328658 7.161231 -0.159474 1.786965 -3.660607 -0.265480 0.902779 -7.875696 -5.648256 -1.995057 -3.906678 4.964127 -2.697923 5.979523 2.526889 -1.345641 2.786251 0.000000 0.000000 0.000000 1.964200 19.640648 -33.344184 21.877366 -32.838048 6.519219 8.086499 0.289328 33.386308 0.000000 0.000000 0.000000 -7.125000 0.000000 0.000000 -13.406099 -2.866530 -14.453333 0.000000 0.000000 0.000000 -4.260581 12.016730 37.727050 -19.807382 -30.409584 -5.433548 -2.907493 17.760086 55.597478 0.000000 0.000000 0.000000 7.125000 0.000000 0.000000 79.285203 72.967724 -61.317738
7.747835 15.078128 42.003326 -181.198154 2.395367 -178.305758 0.000000 0.000000 0.000000 -31.598452 -20.859949 -0.225524 1.877172 8.604870 24.567262 1.834486 11.902215 -32.219210 0.697827 -5.338509 -14.876879 0.000000 0.000000 0.000000 19.871377 11.655557 -12.490185 -4.743835 -13.087435 39.699919 -1.519273 -11.555353 -29.979238 -0.000082 -0.062269 0.171091 -1.051353 1.537903 6.962666 -0.409900 1.970416 -3.539122 -0.108803 1.025552 -7.648857 -5.495272 -2.042155 -3.789210 4.932107 -2.729118 5.127804 2.480466 -1.349422 2.475646 0.000000 0.000000 0.000000 1.947221 19.442485 -31.776943 21.936617 -32.905258 6.551345 9.769484 -3.841887 32.874605 0.000000 0.000000 0.000000 -7.125000 0.000000 0.000000 -12.448306 -2.598087 -13.305428 0.000000 0.000000 0.000000 -4.161986 11.458613 36.382819 -19.626034 -30.189141 -5.342010 -1.432518 16.711806 54.819722 0.000000 0.000000 0.000000 7.125000 0.000000 0.000000 77.360943 72.303890 -58.662667
7.702018 15.087487 41.952890 -181.549469 2.503628 -178.359705 0.000000 0.000000 0.000000 -32.238253 -20.234157 0.543735 1.691242 8.190808 23.295235 1.669081 12.396546 -31.591498 0.727004 -5.447672 -15.189882 0.000000 0.000000 0.000000 19.096305 11.357876 -14.970995 -5.688322 -14.118890 43.716790 -1.353993 -11.511991 -28.842074 -0.001036 -0.208241 0.572255 -1.216062 1.508342 7.082907 -0.505312 1.901809 -3.417362 -0.108290 0.995176 -7.589750 -5.181853 -1.930114 -3.571705 4.488002 -2.550889 4.491930 2.275710 -1.260994 2.196264 0.000000 0.000000 0.000000 1.862698 19.207995 -29.693451 21.199984 -32.060926 6.155833 10.251635 -4.287104 33.160406 0.000000 0.000000 0.000000 -7.125000 0.000000 0.000000 -12.197619 -2.936881 -13.100744 0.000000 0.000000 0.000000 -3.995246 11.153119 34.954387 -18.887112 -29.278078 -4.975560 -3.029431 18.570576 53.882606 0.000000 0.000000 0.000000 7.125000 0.000000 0.000000 73.788342 72.655776 -55.676837
7.654549 15.106252 41.900304 -181.641730 2.358658 -178.302766 0.000000 0.000000 0.000000 -32.603952 -20.136645 1.152325 1.559049 7.879788 22.349664 1.512639 12.849260 -30.981045 0.774825 -5.620113 -15.686111 0.000000 0.000000 0.000000 18.755908 11.085327 -17.426434 -6.552136 -14.942234 47.158205 -1.104655 -12.290012 -27.755568 -0.004727 -0.198902 0.546619 -0.871772 1.455202 7.324959 -0.704261 1.848013 -3.397499 -0.509622 0.945362 -7.690039 -4.739952 -1.930772 -3.531375 4.169991 -2.551529 4.263981 2.087736 -1.259410 2.096738 0.000000 0.000000 0.000000 2.337378 18.461617 -27.399002 20.755592 -31.540521 5.922245 4.425848 -0.054340 32.140670 0.000000 0.000000 0.000000 -7.125000 0.000000 0.000000 -15.363075 -1.243200 -16.283458 0.000000 0.000000 0.000000 -3.565719 10.914097 32.981166 -18.137587 -28.332809 -4.614490 -3.192024 20.163138 53.462718 0.000000 0.000000 0.000000 7.125000 0.000000 0.000000 72.406403 72.603197 -54.322071
